<svg width="56" height="44" viewBox="0 0 56 44" fill="none" xmlns="http://www.w3.org/2000/svg">
<rect width="56" height="44" fill="#E5E5E5"/>
<rect width="1440" height="7448" transform="translate(-265 -6624)" fill="white"/>
<path d="M55.0074 2.66497V8.07194C55.0074 8.1483 54.9458 8.21088 54.8693 8.213C54.6877 8.21618 54.5061 8.22255 54.3276 8.20451C53.8189 8.15255 53.3133 8.06982 52.8046 8.02209C51.7159 7.91921 50.6273 7.80679 49.5355 7.74527C48.8111 7.70497 48.0836 7.73361 47.3136 7.73679C47.236 7.73679 47.1723 7.80043 47.1723 7.87785C47.1723 8.05073 47.1723 8.21406 47.1723 8.37846C47.167 10.6535 47.1617 12.9295 47.1564 15.2045L47.1383 15.2215C46.3779 15.2703 45.627 15.3657 44.9005 15.615C44.0423 15.9098 43.4624 16.4847 43.1449 17.331C42.8634 18.0841 42.737 18.8678 42.7147 19.6644C42.6722 21.2001 42.6351 22.7359 42.6329 24.2727C42.6244 30.4221 42.6297 36.5715 42.6297 42.7209V43.2522C42.6297 43.3254 42.5745 43.3859 42.5012 43.3922C41.3818 43.4972 35.6975 43.4707 34.7267 43.3604C34.6566 43.3519 34.6035 43.2915 34.6035 43.2204V22.4272C34.6035 22.2713 34.3869 22.231 34.3306 22.3763C34.3253 22.3912 34.3189 22.406 34.3136 22.4209C33.7963 23.7901 33.0688 25.031 32.0715 26.1107C30.6302 27.6698 28.8427 28.671 26.8503 29.3328C24.3097 30.1771 21.6842 30.491 19.0195 30.5059C16.1178 30.5218 13.2151 30.5091 10.3135 30.5101C10.151 30.5101 9.98849 30.5175 9.81537 30.5239C9.73996 30.5271 9.67943 30.5886 9.67943 30.665V33.1394C9.67943 34.0048 9.67943 34.8713 9.67943 35.7368C9.67943 36.5853 9.67943 37.4327 9.67943 38.2812C9.67943 39.1466 9.68367 40.0131 9.67836 40.8786C9.67305 41.6751 9.70067 42.4737 9.6635 43.3159C9.66031 43.3912 9.59552 43.4516 9.52011 43.4516C8.87117 43.4516 8.27746 43.4506 7.68482 43.4516C5.40238 43.458 3.11995 43.4665 0.837515 43.4707C0.70263 43.4707 0.568806 43.4537 0.43392 43.4378C0.36276 43.4293 0.308594 43.37 0.308594 43.2978C0.308594 29.1398 0.308594 14.9807 0.308594 0.822701C0.308594 0.745277 0.371257 0.681641 0.449852 0.681641C6.47828 0.681641 12.5067 0.681641 18.5341 0.681641C19.936 0.681641 21.3369 0.756943 22.7272 0.933004C22.8568 0.949973 22.9874 0.966944 23.117 0.984974C24.7654 1.21937 26.3755 1.61391 27.9177 2.25452C29.9887 3.11573 31.7369 4.38846 33.0146 6.25618C34.2169 8.01255 34.8467 9.98103 35.1622 12.0641C35.2036 12.3388 35.2397 12.6145 35.2758 12.8892C35.2949 13.0313 35.4893 13.0578 35.5445 12.9253L35.5456 12.9221C36.373 10.9536 37.7686 9.55254 39.7419 8.72739C41.2745 8.08679 42.8815 7.77709 44.5298 7.66361C45.3731 7.60527 46.2186 7.57982 47.0714 7.53952C47.1096 7.5374 47.1447 7.52043 47.1702 7.49285C48.5424 5.94649 50.143 4.68437 51.9677 3.70967C52.8821 3.22073 53.821 2.788 54.83 2.52816C54.9203 2.50482 55.0074 2.57376 55.0074 2.66497ZM9.6996 21.8216C9.6996 21.8938 9.7559 21.9553 9.82812 21.9616C9.9014 21.968 9.95769 21.9744 10.015 21.9744C12.8455 21.9754 15.6749 21.9945 18.5043 21.9669C19.8288 21.9542 21.1511 21.8588 22.4288 21.4483C23.9784 20.9509 25.0681 19.9709 25.5874 18.4171C26.1684 16.6788 26.1769 14.9107 25.7074 13.1501C25.2561 11.4585 24.195 10.3257 22.5031 9.77527C21.3985 9.41573 20.2664 9.23861 19.1182 9.22482C16.1295 9.18876 13.1408 9.19724 10.1521 9.19194C10.0416 9.19194 9.93114 9.20997 9.81962 9.22694C9.75058 9.23755 9.6996 9.29694 9.6996 9.36588V21.8216Z" fill="black"/>
<path d="M55.0092 43.2864C55.0092 43.3628 54.9476 43.4254 54.8711 43.4264C54.3868 43.4349 53.9035 43.4466 53.4192 43.4476C51.5457 43.4508 49.6722 43.4487 47.7976 43.4487H47.2878C47.2134 43.4487 47.1518 43.3904 47.1476 43.3161C47.138 43.156 47.1274 43.0096 47.1263 42.8632C47.1242 41.7687 47.1253 40.6742 47.1253 39.5796C47.1253 31.7067 47.1253 23.8338 47.1263 15.961C47.1263 15.7138 47.1359 15.4667 47.1401 15.2196L47.1582 15.2026C49.7285 15.2058 52.2987 15.2079 54.8679 15.2111C54.9454 15.2111 55.0081 15.2737 55.0081 15.3522V43.2864H55.0092Z" fill="black"/>
</svg>
